<svg xmlns="http://www.w3.org/2000/svg" viewBox="0 0 24 24" fill="currentColor">
  <path d="M6.763 10.036l1.22.586c-.23.48-.41.93-.53 1.35-.12.42-.18.87-.18 1.35 0 .48.06.93.18 1.35.12.42.3.87.53 1.35l-1.22.586c-.33-.66-.59-1.29-.78-1.89-.19-.6-.29-1.26-.29-1.98 0-.72.1-1.38.29-1.98.19-.6.45-1.23.78-1.89zm3.5 2.5l1.22.586c-.12.24-.18.51-.18.81 0 .3.06.57.18.81l-1.22.586c-.2-.4-.3-.85-.3-1.35 0-.5.1-.95.3-1.35zm3.5 0l1.22.586c-.12.24-.18.51-.18.81 0 .3.06.57.18.81l-1.22.586c-.2-.4-.3-.85-.3-1.35 0-.5.1-.95.3-1.35z"/>
</svg>
