<svg xmlns="http://www.w3.org/2000/svg" viewBox="0 0 24 24" fill="currentColor">
  <path d="M8.851 18.56s-.917.534.653.714c1.902.218 2.874.187 4.969-.211 0 0 .552.346 1.321.646-4.699 2.013-10.633-.118-6.943-1.149M8.276 15.933s-1.028.761.542.924c2.032.209 3.636.227 6.413-.308 0 0 .384.389.987.602-6.19 1.661-12.207-.13-7.942-1.218M13.116 11.475c1.158 1.333-.304 2.533-.304 2.533s2.939-1.518 1.589-3.418c-1.261-1.772-2.228-2.652 3.007-5.688 0-.001-8.216 2.051-4.292 6.573M19.33 20.504s.679.559-.747.991c-2.712.822-11.288 1.069-12.686.033-.856-.642.75-.89 1.254-.998.527-.114.828-.093.828-.093-.953-.671-.6-.82-.6-.82s1.24.28 3.247.28c2.207 0 4.645-.5 6.707-2.141 0 0 .752.44 1.298.768M9.292 13.21s-4.362 1.036-1.544 1.412c1.189.159 3.561.123 5.77-.062 1.806-.152 3.618-.477 5.372-1.12 0 0-.637-.272-1.098-.469.906 1.411-1.803 2.379-4.375 2.658-3.24.354-6.114.031-8.242-1.562 0 0 .721.232 1.103.353.954.3 2.889.5 4.714.19M17.116 17.584c4.503-2.34 2.421-4.589.968-4.285-.355.075-.515.138-.515.138s.132-.207.385-.297c2.875-1.011 5.086 2.981-1.688 4.708 0 0 .34.49.83.736M14.401 0s2.494 2.494-2.365 6.33c-3.896 3.077-.888 4.832-.001 6.836-2.274-1.796-3.522-3.48-2.247-5.359 1.644-2.469 6.197-3.665 4.613-7.807M9.734 23.924c4.322.277 10.959-.153 11.116-2.198 0 0-.302.775-3.572 1.391-3.688.694-8.239.613-10.937.168 0 0 .629.527 3.393.639"/>
</svg>
